<svg enable-background="new 0 0 22.417 27.25" height="350.324525" viewBox="0 0 22.417 27.25" width="285.449613" xmlns="http://www.w3.org/2000/svg"><path d="m.827.632v20.631c0 1.776 1.368 3.166 3.114 3.166h4.902c.656 0 1.509.442 1.937 1.685l.236.687c.059.143.141.232.235.232.092 0 .176-.09.234-.232l.236-.687c.428-1.242 1.279-1.685 1.936-1.685h4.902c1.747 0 3.114-1.39 3.114-3.166v-20.631z"/><path d="m1.325 1.13h8.077v9.552h-8.077z" fill="#ed232a"/><path d="m1.325 14.378v6.885c0 1.554 1.198 2.668 2.616 2.668h4.902c.178 0 .366.025.559.079v-9.632z" fill="#ed232a"/><path d="m13.098 1.13h8.078v9.552h-8.078z" fill="#ed232a"/><path d="m13.098 24.01c.193-.054.382-.079.56-.079h4.902c1.418 0 2.615-1.114 2.615-2.668v-6.885h-8.077z" fill="#ed232a"/><path d="m13.098 10.682v-9.552h-3.696v9.552h-8.077v3.696h8.077v9.632c.7.197 1.449.781 1.85 1.942.398-1.16 1.147-1.744 1.847-1.942v-9.632h8.077v-3.696z" fill="#ffca05"/><path d="m4.303 5.075c.018.061-.021.108-.066.132-.084.042-.328.06-.422.029 0 0-.122.22-.304.22-.181 0-.303-.22-.303-.22-.093.03-.338.013-.421-.029-.045-.024-.084-.072-.069-.132.053-.197.216-.832.272-1.057l-.33.123c-.058.252-.234.657-.534.68-.044.004-.107-.016-.102-.057.038-.34.245-1.88.266-2.026.02-.146.067-.215.17-.248.099-.032.174-.009.281.088.083.073.383.351.383.351s.033-.253.042-.335c-.035 0-.079 0-.079 0-.043 0-.078-.034-.078-.077l.035-.307c0-.031.02-.059.046-.071 0 0 .129-.062.236-.103s.185-.041.185-.041c.086.003.154.025.209.07.065.049.103.119.112.205l.068.658s.3-.277.382-.351c.107-.097.182-.12.282-.088.103.033.149.102.17.248.019.147.227 1.687.266 2.027.004.041-.059.061-.102.057-.301-.023-.478-.428-.534-.68l-.331-.123c.055.225.219.86.27 1.057"/><path d="m8.004 5.075c.017.061-.021.108-.067.132-.084.042-.327.059-.422.029 0 0-.122.22-.303.22s-.302-.22-.302-.22c-.094.03-.339.013-.422-.029-.045-.024-.084-.072-.069-.132.052-.196.216-.832.272-1.057l-.33.123c-.058.252-.234.657-.534.68-.044.004-.107-.016-.103-.057.038-.34.245-1.88.267-2.026.02-.146.066-.215.17-.248.099-.032.174-.009.281.088.083.073.382.351.382.351s.034-.253.043-.335c-.035 0-.079 0-.079 0-.043 0-.078-.034-.078-.077l.036-.307c0-.031.019-.059.046-.071 0 0 .129-.062.236-.103s.185-.041.185-.041c.086.003.154.025.208.07.065.049.103.119.112.205l.067.658s.301-.277.383-.351c.107-.096.183-.119.281-.087.104.033.15.102.17.248.021.146.229 1.687.267 2.026.004.041-.06.061-.103.057-.301-.022-.477-.428-.533-.68l-.331-.123c.056.225.22.86.27 1.057"/><path d="m4.303 9.436c.018.062-.021.11-.066.133-.084.042-.328.06-.422.028 0 0-.122.221-.304.221-.181 0-.303-.221-.303-.221-.093.031-.338.014-.421-.028-.045-.023-.084-.071-.069-.133.053-.195.216-.831.272-1.056l-.33.123c-.058.252-.235.658-.535.679-.043.004-.106-.014-.101-.056.038-.34.245-1.88.266-2.027.02-.146.067-.214.17-.248.098-.031.173-.009.281.089.083.072.383.351.383.351s.033-.253.042-.334c-.035 0-.079 0-.079 0-.043 0-.078-.035-.078-.078l.036-.306c0-.031.02-.06.046-.071 0 0 .129-.062.236-.103s.185-.041.185-.041c.085.002.153.025.208.068.064.049.103.12.111.206l.069.659s.3-.278.382-.351c.107-.098.182-.12.282-.089.103.034.149.103.17.248.019.148.227 1.688.266 2.027.004.042-.059.06-.102.056-.301-.021-.478-.427-.534-.679l-.331-.123c.055.225.219.861.27 1.056"/><path d="m8.004 9.436c.017.062-.021.11-.067.133-.084.042-.327.059-.422.028 0 0-.122.221-.303.221s-.302-.221-.302-.221c-.094.031-.339.014-.422-.028-.045-.023-.084-.071-.069-.133.052-.195.216-.831.273-1.056l-.331.123c-.058.252-.235.658-.534.679-.044.004-.107-.014-.103-.056.038-.34.245-1.88.267-2.027.02-.146.066-.214.17-.248.098-.031.173-.009.281.089.083.072.382.351.382.351s.034-.253.043-.334c-.035 0-.079 0-.079 0-.043 0-.078-.035-.078-.078l.036-.306c0-.031.019-.06.046-.071 0 0 .129-.062.236-.103s.185-.041.185-.041c.086.002.154.025.208.068.064.049.103.12.111.206l.068.659s.301-.278.383-.351c.107-.098.183-.12.281-.089.104.034.15.103.17.248.021.147.229 1.688.267 2.027.004.042-.06.06-.103.056-.301-.021-.476-.427-.533-.679l-.331-.123c.056.225.22.861.27 1.056"/><path d="m16.079 5.075c.016.061-.023.108-.068.132-.083.042-.328.06-.422.029 0 0-.122.22-.303.22s-.303-.22-.303-.22c-.095.03-.339.013-.423-.029-.045-.023-.084-.071-.067-.132.052-.196.216-.832.271-1.057l-.331.123c-.057.252-.232.657-.533.68-.045.004-.106-.016-.103-.057.039-.34.246-1.88.267-2.026.02-.146.066-.215.17-.248.1-.032.174-.009.28.088.083.073.384.351.384.351s.032-.253.042-.335c-.035 0-.079 0-.079 0-.043 0-.078-.034-.078-.077l.036-.306c0-.031.019-.059.046-.071 0 0 .129-.062.236-.103s.185-.041.185-.041c.086.002.154.024.209.069.063.049.102.119.11.205l.069.658s.299-.277.382-.351c.107-.097.183-.12.281-.088.104.033.15.102.17.248.021.146.229 1.687.267 2.026.004.041-.059.061-.103.057-.3-.022-.477-.428-.534-.68l-.33-.123c.056.226.22.861.272 1.058"/><path d="m19.78 5.075c.016.061-.023.108-.068.132-.084.042-.328.06-.422.029 0 0-.122.22-.303.22-.182 0-.304-.22-.304-.22-.094.03-.339.013-.422-.029-.045-.023-.084-.071-.067-.132.052-.196.216-.832.271-1.057l-.331.123c-.057.252-.232.657-.534.68-.044.004-.105-.016-.102-.057.038-.34.246-1.88.266-2.026.021-.146.067-.215.17-.248.1-.032.175-.009.281.088.083.073.383.351.383.351s.033-.253.042-.335c-.035 0-.078 0-.078 0-.044 0-.078-.034-.078-.077l.035-.306c0-.031.02-.059.047-.071 0 0 .129-.062.236-.103s.185-.041.185-.041c.087.002.153.024.209.069.063.049.102.119.11.205l.069.658s.299-.277.382-.351c.107-.097.183-.12.281-.088.103.033.15.102.17.248.021.146.229 1.687.266 2.026.004.041-.058.061-.102.057-.3-.022-.477-.428-.534-.68l-.331-.123c.057.226.22.861.273 1.058"/><path d="m16.079 9.436c.016.062-.023.11-.068.133-.083.042-.328.06-.422.028 0 0-.122.221-.303.221s-.303-.221-.303-.221c-.095.031-.339.014-.423-.028-.045-.022-.084-.071-.067-.133.052-.195.216-.831.271-1.056l-.331.123c-.057.252-.232.657-.533.679-.045.004-.106-.014-.103-.056.039-.34.246-1.88.267-2.027.02-.146.066-.214.17-.248.1-.031.174-.009.28.089.083.072.384.351.384.351s.032-.253.042-.334c-.035 0-.079 0-.079 0-.043 0-.078-.035-.078-.078l.036-.306c0-.031.019-.06.046-.071 0 0 .129-.062.236-.103s.185-.041.185-.041c.086.002.154.025.209.068.063.049.102.12.11.206l.069.658s.299-.278.382-.351c.107-.098.183-.12.281-.089.104.034.15.103.17.248.021.147.229 1.688.267 2.027.004.042-.059.06-.103.056-.3-.021-.477-.427-.534-.679l-.33-.123c.056.226.22.862.272 1.057"/><path d="m19.78 9.436c.016.062-.023.11-.068.133-.084.042-.328.06-.422.028 0 0-.122.221-.303.221-.182 0-.304-.221-.304-.221-.094.031-.339.014-.422-.028-.045-.022-.084-.071-.067-.133.052-.195.216-.831.271-1.056l-.331.123c-.057.252-.232.657-.534.679-.044.004-.105-.014-.102-.056.038-.34.246-1.88.266-2.027.021-.146.067-.214.17-.248.1-.031.175-.009.281.089.083.072.383.351.383.351s.033-.253.042-.334c-.035 0-.078 0-.078 0-.044 0-.078-.035-.078-.078l.035-.306c0-.031.02-.06.047-.071 0 0 .129-.062.236-.103s.185-.041.185-.041c.087.002.153.025.209.068.063.049.102.12.11.206l.069.658s.299-.278.382-.351c.107-.098.183-.12.281-.089.103.034.15.103.17.248.021.147.229 1.688.266 2.027.004.042-.058.06-.102.056-.3-.021-.477-.427-.534-.679l-.331-.122c.057.225.22.861.273 1.056"/><path d="m4.303 18.324c.018.06-.021.108-.066.131-.084.043-.328.061-.422.03 0 0-.122.219-.304.219-.181 0-.303-.219-.303-.219-.094.03-.339.013-.422-.03-.045-.022-.084-.071-.068-.131.053-.197.216-.833.271-1.057l-.33.122c-.058.252-.234.657-.534.68-.044.004-.106-.015-.102-.056.038-.341.245-1.881.266-2.027.02-.146.067-.214.17-.247.099-.033.174-.009.281.087.083.074.383.351.383.351s.033-.253.042-.334c-.035 0-.079 0-.079 0-.043 0-.078-.035-.078-.077l.036-.306c0-.031.02-.06.046-.071 0 0 .129-.062.236-.104.107-.041.185-.041.185-.041.086.003.153.025.209.07.064.049.103.119.111.204l.069.658s.3-.276.382-.351c.107-.096.182-.12.282-.087.103.033.149.101.17.247.02.146.228 1.687.266 2.027.004.041-.059.06-.102.056-.301-.022-.478-.428-.534-.68l-.331-.122c.055.225.219.86.27 1.058"/><path d="m8.004 18.324c.017.06-.021.108-.067.131-.084.043-.327.061-.422.03 0 0-.122.219-.303.219s-.302-.219-.302-.219c-.094.03-.339.013-.422-.03-.045-.022-.084-.071-.068-.131.052-.197.216-.833.272-1.057l-.331.122c-.058.252-.234.657-.534.68-.044.004-.106-.015-.103-.056.038-.341.245-1.881.267-2.027.02-.146.066-.214.17-.247.099-.033.174-.009.281.087.083.074.382.351.382.351s.034-.253.043-.334c-.035 0-.079 0-.079 0-.043 0-.078-.035-.078-.077l.036-.306c0-.031.019-.06.046-.071 0 0 .129-.062.236-.104.107-.041.185-.041.185-.041.087.003.154.025.209.07.064.049.103.119.111.204l.067.658s.301-.276.383-.351c.107-.096.183-.12.281-.087.104.033.15.101.17.247.021.146.229 1.687.267 2.027.004.041-.06.06-.103.056-.301-.022-.477-.428-.533-.68l-.331-.122c.056.225.22.86.27 1.058"/><path d="m4.303 22.685c.018.061-.021.109-.066.132-.084.043-.328.061-.422.029 0 0-.122.221-.304.221-.181 0-.303-.221-.303-.221-.094.031-.339.014-.422-.029-.045-.022-.084-.071-.068-.132.053-.195.216-.833.271-1.056l-.33.123c-.058.251-.234.656-.534.678-.044.004-.106-.014-.102-.055.038-.341.245-1.881.266-2.027.02-.146.067-.215.17-.248.099-.032.174-.009.281.087.083.074.383.353.383.353s.033-.254.042-.335c-.035 0-.079 0-.079 0-.043 0-.078-.035-.078-.077l.036-.306c0-.031.02-.06.046-.071 0 0 .129-.062.236-.103.107-.042.185-.042.185-.042.086.003.153.025.209.069.064.049.103.12.111.205l.069.66s.3-.278.382-.353c.107-.096.182-.119.282-.087.103.033.149.103.17.248.02.146.228 1.687.266 2.027.004.041-.059.059-.102.055-.301-.021-.478-.427-.534-.678l-.331-.123c.055.223.219.861.27 1.056"/><path d="m8.004 22.685c.017.061-.021.109-.067.132-.084.043-.327.061-.422.029 0 0-.122.221-.303.221s-.302-.221-.302-.221c-.094.031-.339.014-.422-.029-.045-.022-.084-.071-.068-.132.052-.195.216-.833.272-1.056l-.331.123c-.058.251-.234.656-.534.678-.044.004-.106-.014-.103-.055.038-.341.245-1.881.267-2.027.02-.146.066-.215.17-.248.099-.032.174-.009.281.087.083.074.382.353.382.353s.034-.254.043-.335c-.035 0-.079 0-.079 0-.043 0-.078-.035-.078-.077l.036-.306c0-.031.019-.06.046-.071 0 0 .129-.062.236-.103.107-.042.185-.042.185-.042.087.003.154.025.209.069.064.049.103.12.111.205l.067.66s.301-.278.383-.353c.107-.096.183-.119.281-.087.104.033.15.103.17.248.021.146.229 1.687.267 2.027.004.041-.06.059-.103.055-.301-.021-.477-.427-.533-.678l-.331-.123c.056.223.22.861.27 1.056"/><path d="m16.079 18.324c.016.06-.023.108-.068.131-.083.043-.328.061-.422.03 0 0-.122.219-.303.219s-.303-.219-.303-.219c-.095.03-.339.013-.423-.03-.045-.022-.084-.071-.067-.131.052-.197.216-.833.271-1.057l-.331.122c-.057.252-.232.657-.533.68-.045.004-.106-.015-.103-.056.039-.341.246-1.881.267-2.027.02-.146.066-.214.17-.247.1-.033.174-.009.28.087.083.074.384.351.384.351s.032-.253.042-.334c-.035 0-.079 0-.079 0-.043 0-.078-.035-.078-.077l.036-.306c0-.031.019-.06.046-.071 0 0 .129-.062.236-.104.107-.041.185-.041.185-.041.086.003.154.025.209.07.063.049.102.119.11.204l.069.658s.299-.276.382-.351c.107-.096.183-.12.281-.087.104.033.15.101.17.247.021.146.229 1.687.267 2.027.004.041-.059.06-.103.056-.3-.022-.477-.428-.534-.68l-.33-.122c.056.225.22.86.272 1.058"/><path d="m19.78 18.324c.016.06-.023.108-.068.131-.084.043-.328.061-.422.03 0 0-.122.219-.303.219-.182 0-.304-.219-.304-.219-.094.03-.339.013-.422-.03-.045-.022-.084-.071-.067-.131.052-.197.216-.833.271-1.057l-.331.122c-.057.252-.232.657-.534.68-.044.004-.105-.015-.102-.056.038-.341.246-1.881.266-2.027.021-.146.067-.214.17-.247.1-.033.175-.009.281.087.083.074.383.351.383.351s.033-.253.042-.334c-.035 0-.078 0-.078 0-.044 0-.078-.035-.078-.077l.035-.306c0-.031.02-.06.047-.071 0 0 .129-.062.236-.104.107-.041.185-.041.185-.041.087.003.153.025.209.07.063.049.102.119.11.204l.069.658s.299-.276.382-.351c.107-.096.183-.12.281-.087.103.033.15.101.17.247.021.146.229 1.687.266 2.027.004.041-.058.06-.102.056-.3-.022-.477-.428-.534-.68l-.331-.122c.057.225.22.86.273 1.058"/><path d="m16.079 22.685c.016.061-.023.109-.068.132-.083.043-.328.061-.422.029 0 0-.122.221-.303.221s-.303-.221-.303-.221c-.095.031-.339.014-.423-.029-.045-.022-.084-.071-.067-.132.052-.195.216-.833.271-1.056l-.331.123c-.057.251-.232.656-.533.678-.045.004-.106-.014-.103-.055.039-.341.246-1.881.267-2.027.02-.146.066-.215.17-.248.1-.032.174-.009.28.087.083.074.384.353.384.353s.032-.254.042-.335c-.035 0-.079 0-.079 0-.043 0-.078-.035-.078-.077l.036-.306c0-.031.019-.06.046-.071 0 0 .129-.062.236-.103.107-.042.185-.042.185-.042.086.003.154.025.209.069.063.049.102.12.11.205l.069.659s.299-.278.382-.353c.107-.096.183-.119.281-.087.104.033.15.103.17.248.021.146.229 1.687.267 2.027.004.041-.059.059-.103.055-.3-.021-.477-.427-.534-.678l-.33-.123c.056.224.22.862.272 1.057"/><path d="m19.78 22.685c.016.061-.023.109-.068.132-.084.043-.328.061-.422.029 0 0-.122.221-.303.221-.182 0-.304-.221-.304-.221-.094.031-.339.014-.422-.029-.045-.022-.084-.071-.067-.132.052-.195.216-.833.271-1.056l-.331.123c-.057.251-.232.656-.534.678-.044.004-.105-.014-.102-.055.038-.341.246-1.881.266-2.027.021-.146.067-.215.17-.248.1-.032.175-.009.281.087.083.074.383.353.383.353s.033-.254.042-.335c-.035 0-.078 0-.078 0-.044 0-.078-.035-.078-.077l.035-.306c0-.031.02-.06.047-.071 0 0 .129-.062.236-.103.107-.042.185-.042.185-.042.087.003.153.025.209.069.063.049.102.12.11.205l.069.659s.299-.278.382-.353c.107-.096.183-.119.281-.087.103.033.15.103.17.248.021.146.229 1.687.266 2.027.004.041-.058.059-.102.055-.3-.021-.477-.427-.534-.678l-.331-.123c.057.224.22.862.273 1.057"/><path d="m11.25 7.267c.159 0 .297-.083.377-.208.063.032.132.052.207.052.232 0 .422-.178.446-.402.242-.005.438-.205.438-.448 0-.111-.041-.213-.108-.292-.108-.13-.5-.601-.506-.608 0-.027 0-.253 0-.253 0-.12-.097-.219-.217-.219 0 0-.211 0-.224 0-.024-.023-.202-.199-.203-.203-.056-.057-.13-.088-.211-.088s-.156.031-.212.088c-.001.004-.178.18-.203.203-.013 0-.223 0-.223 0-.12 0-.217.099-.217.219v.253c-.004.007-.395.477-.504.607-.067.079-.109.181-.109.292 0 .243.196.443.439.448.023.225.214.402.446.402.074 0 .144-.02.207-.052.081.126.218.209.377.209"/><path d="m11.25 13.891c.159 0 .297-.083.377-.208.063.033.132.052.207.052.232 0 .422-.177.446-.402.242-.005.438-.204.438-.448 0-.11-.041-.213-.108-.292-.108-.13-.5-.601-.506-.608 0-.027 0-.252 0-.252 0-.12-.097-.22-.217-.22 0 0-.211 0-.224 0-.024-.023-.202-.2-.203-.203-.056-.057-.13-.088-.211-.088s-.156.031-.212.088c-.001.003-.178.18-.203.203-.013 0-.223 0-.223 0-.12 0-.217.1-.217.22v.252c-.006.008-.397.479-.506.608-.067.079-.109.182-.109.292 0 .244.196.443.439.448.023.226.214.402.446.402.074 0 .144-.019.207-.052.083.125.22.208.379.208"/><path d="m5.363 13.891c.158 0 .298-.083.377-.208.063.033.133.052.208.052.23 0 .422-.177.444-.402.243-.005.44-.204.44-.448 0-.11-.042-.213-.11-.292-.107-.13-.499-.601-.506-.608 0-.027 0-.252 0-.252 0-.12-.096-.22-.216-.22 0 0-.21 0-.223 0-.025-.023-.202-.2-.203-.203-.057-.057-.131-.088-.212-.088s-.155.031-.211.088c-.001.003-.179.18-.203.203-.014 0-.224 0-.224 0-.12 0-.217.1-.217.22v.252c-.006.008-.397.479-.506.608-.067.079-.109.182-.109.292 0 .244.197.443.439.448.024.226.214.402.446.402.074 0 .145-.019.208-.052.081.125.219.208.378.208"/><path d="m17.136 13.891c.159 0 .297-.083.377-.208.063.033.133.052.208.052.231 0 .422-.177.445-.402.243-.005.44-.204.44-.448 0-.11-.042-.213-.11-.292-.108-.13-.499-.601-.506-.608 0-.027 0-.252 0-.252 0-.12-.097-.22-.216-.22 0 0-.21 0-.224 0-.024-.023-.202-.2-.203-.203-.056-.057-.131-.088-.212-.088-.08 0-.154.031-.211.088-.001.003-.178.18-.203.203-.013 0-.223 0-.223 0-.12 0-.217.1-.217.22v.252c-.006.008-.398.479-.506.608-.068.079-.109.182-.109.292 0 .244.197.443.439.448.023.226.214.402.445.402.075 0 .146-.019.208-.052.081.125.219.208.378.208"/><path d="m11.25 20.516c.159 0 .297-.083.377-.208.063.032.132.051.207.051.232 0 .422-.177.446-.402.242-.005.438-.204.438-.448 0-.11-.041-.213-.108-.292-.108-.13-.5-.601-.506-.607 0-.028 0-.253 0-.253 0-.12-.097-.22-.217-.22 0 0-.211 0-.224 0-.024-.023-.202-.2-.203-.203-.056-.057-.13-.088-.211-.088s-.156.031-.212.088c-.001.003-.178.18-.203.203-.013 0-.223 0-.223 0-.12 0-.217.1-.217.22v.253c-.006.007-.397.478-.506.607-.067.079-.109.182-.109.292 0 .244.196.443.439.448.023.226.214.402.446.402.074 0 .144-.019.207-.051.083.125.22.208.379.208"/><path d="m11.25 7.121c.104-.006.194-.064.243-.15l-.086-.813c-.002-.031.02-.06.052-.064s.062.018.067.049l.144.782c.044.024.095.039.15.039.157 0 .286-.122.299-.277l-.332-.772c-.014-.031 0-.066.031-.079.028-.013.063-.001.077.028l.359.698c.167 0 .303-.135.303-.301 0-.063-.006-.118-.037-.162l-.572-.684v-.309c0-.034-.024-.063-.061-.063-.002 0-.288 0-.288 0l-.248-.25c-.025-.026-.063-.041-.102-.041s-.076.015-.102.041l-.247.249s-.286 0-.287 0c-.037 0-.062.029-.062.063v.309l-.571.684c-.031.044-.037.099-.037.162 0 .166.136.301.303.301l.359-.698c.014-.029.049-.041.077-.028.03.013.044.048.031.079l-.333.772c.013.155.143.277.3.277.055 0 .105-.015.15-.039l.143-.782c.007-.031.036-.053.068-.049.031.005.053.033.051.064l-.086.813c.049.086.14.145.244.151" fill="#00adef"/><path d="m11.25 13.745c.104-.006.194-.063.243-.15l-.086-.813c-.002-.031.02-.06.052-.063.032-.005.062.018.067.048l.144.782c.044.025.095.04.15.04.157 0 .286-.122.299-.278l-.332-.772c-.014-.03 0-.066.031-.079.028-.013.063 0 .077.028l.359.698c.167 0 .303-.134.303-.301 0-.063-.006-.117-.037-.162l-.572-.684v-.309c0-.034-.024-.063-.061-.063-.002 0-.288 0-.288 0l-.248-.249c-.025-.026-.063-.042-.102-.042s-.076.016-.102.042l-.247.249s-.286 0-.287 0c-.037 0-.062.029-.062.063v.309l-.571.683c-.031.045-.037.1-.037.162 0 .167.136.301.303.301l.359-.698c.014-.028.049-.041.077-.028.03.013.044.049.031.079l-.333.772c.013.156.143.278.3.278.055 0 .105-.015.15-.04l.143-.782c.007-.03.036-.053.068-.048.031.004.053.032.051.063l-.086.813c.049.087.14.145.244.151" fill="#00adef"/><path d="m5.363 13.745c.104-.006.194-.063.244-.15l-.086-.813c-.003-.031.02-.06.051-.063.031-.005.062.018.067.048l.145.782c.044.025.095.04.148.04.158 0 .287-.122.301-.278l-.333-.773c-.014-.03.001-.066.03-.079.03-.013.064 0 .078.028l.359.698c.168 0 .303-.134.303-.301 0-.063-.005-.117-.038-.162l-.57-.684v-.308c0-.034-.024-.063-.062-.063-.001 0-.287 0-.287 0l-.249-.249c-.025-.026-.063-.042-.102-.042s-.075.016-.103.042l-.248.249s-.286 0-.287 0c-.036 0-.061.029-.061.063v.309l-.572.684c-.032.045-.038.1-.038.162 0 .167.137.301.304.301l.359-.698c.015-.028.048-.041.077-.028.031.013.045.049.031.079l-.33.771c.013.156.141.278.299.278.055 0 .106-.015.15-.04l.144-.782c.006-.03.035-.053.067-.048.031.004.054.032.052.063l-.086.813c.048.087.138.145.243.151" fill="#00adef"/><path d="m17.136 13.745c.105-.006.195-.063.244-.15l-.086-.813c-.002-.031.021-.06.051-.063.032-.005.063.018.068.048l.143.782c.045.025.097.04.15.04.158 0 .287-.122.3-.278l-.333-.772c-.013-.03.001-.066.031-.079s.063 0 .078.028l.358.698c.168 0 .304-.134.304-.301 0-.063-.006-.117-.038-.162l-.571-.684v-.309c0-.034-.023-.063-.061-.063-.001 0-.287 0-.287 0l-.249-.249c-.026-.026-.064-.042-.103-.042s-.076.016-.102.042l-.248.249s-.286 0-.287 0c-.037 0-.061.029-.061.063v.309l-.572.684c-.032.045-.038.1-.038.162 0 .167.136.301.303.301l.36-.698c.014-.028.048-.041.077-.028.03.013.045.049.03.079l-.332.772c.014.156.142.278.3.278.055 0 .105-.015.149-.04l.145-.782c.005-.03.035-.053.066-.048.032.004.055.032.053.063l-.087.813c.052.086.142.144.245.15" fill="#00adef"/><path d="m11.25 20.369c.104-.006.194-.063.243-.149l-.086-.813c-.002-.031.02-.06.052-.064s.062.018.067.048l.144.782c.044.025.095.04.15.04.157 0 .286-.122.299-.277l-.332-.773c-.014-.03 0-.065.031-.079.028-.013.063 0 .077.028l.359.699c.167 0 .303-.135.303-.302 0-.063-.006-.117-.037-.161l-.572-.685v-.31c0-.033-.024-.063-.061-.063-.002 0-.288 0-.288 0l-.248-.249c-.024-.026-.062-.041-.101-.041s-.076.016-.102.042l-.248.249s-.286 0-.287 0c-.037 0-.062.029-.062.063v.31l-.571.683c-.031.044-.037.099-.037.161 0 .167.136.302.303.302l.359-.699c.014-.028.049-.041.077-.028.03.014.044.049.031.079l-.333.773c.013.155.143.277.3.277.055 0 .105-.015.15-.04l.143-.782c.007-.03.036-.053.068-.048.031.005.053.033.051.064l-.086.813c.049.086.14.144.244.15" fill="#00adef"/><g fill="#dbdcde"><path d="m4.143 5.075c-.054.019-.173.028-.232.023-.017-.001-.031-.003-.042-.007l-.008-.007-.12-.582c-.023-.107-.111-.098-.101.021l.062.6c-.017.031-.106.177-.191.177s-.174-.146-.189-.177l.061-.6c.01-.119-.078-.128-.1-.021l-.12.582-.009.007c-.012.004-.026.006-.042.007-.06.005-.18-.004-.232-.023.075-.301.249-.956.298-1.168.007-.032-.012-.088-.076-.09-.006 0-.019.001-.034.007-.075.028-.29.109-.358.135l.043-.479c.01-.119-.085-.129-.105-.021-.095.423-.148.998-.453 1.185.023-.201.224-1.705.252-1.906.008-.048.009-.083.061-.102.038-.013.072.003.107.037.003.002.505.461.505.461.019.026.051.036.083.028.029-.009.052-.035.056-.066l.07-.569c.002-.022-.004-.044-.021-.06-.014-.017-.034-.027-.056-.027 0 0-.041 0-.079 0l.021-.178c.056-.026.21-.097.281-.108.001 0 .006-.001.006-.001.003-.001.029-.002.029-.002.044 0 .084.012.114.035.033.024.05.058.053.101l.088.809c.004.031.026.058.056.066s.062-.002.083-.028c0 0 .502-.459.504-.461.035-.034.068-.05.106-.037.054.019.055.054.063.102.028.201.228 1.705.252 1.906-.306-.187-.36-.762-.454-1.186-.02-.107-.116-.097-.106.022l.046.479c-.068-.026-.283-.107-.358-.135-.016-.006-.03-.007-.036-.007-.063.002-.083.058-.076.09.049.212.224.867.298 1.168"/><path d="m7.844 5.075c-.054.02-.173.028-.232.023-.017-.001-.03-.003-.042-.007l-.008-.007-.12-.582c-.022-.107-.11-.099-.101.021l.062.6c-.017.031-.106.177-.191.177s-.173-.146-.189-.177l.061-.6c.01-.119-.078-.128-.1-.021l-.12.582-.009.007c-.012.004-.025.006-.043.007-.059.005-.179-.004-.232-.023.076-.301.25-.956.299-1.168.007-.032-.012-.088-.076-.09-.006 0-.019.001-.035.007-.075.028-.291.109-.358.134l.045-.478c.01-.119-.085-.129-.105-.021-.096.423-.148.998-.454 1.185.023-.201.224-1.705.252-1.906.008-.048.009-.083.061-.102.038-.013.072.003.107.037.002.002.504.461.504.461.02.026.054.036.084.028.028-.009.052-.035.056-.066l.07-.569c.002-.022-.004-.044-.021-.06-.013-.017-.035-.027-.055-.027 0 0-.04 0-.079 0l.021-.178c.056-.026.209-.097.281-.108.001 0 .005-.001.005-.001.003-.001.03-.002.03-.002.044 0 .084.012.114.035.032.024.049.058.052.101l.088.809c.004.03.027.057.055.066.03.008.063-.002.084-.028 0 0 .502-.459.504-.461.034-.034.068-.05.106-.037.053.019.054.054.063.102.027.201.227 1.705.252 1.906-.307-.187-.36-.762-.453-1.186-.022-.107-.117-.097-.107.022l.045.479c-.067-.026-.282-.107-.357-.135-.017-.006-.03-.007-.035-.007-.065.002-.083.058-.077.09.049.212.223.867.298 1.168"/><path d="m4.143 9.436c-.054.021-.173.03-.232.025-.017-.002-.031-.003-.042-.007l-.008-.006-.12-.583c-.022-.107-.11-.1-.101.02l.062.601c-.017.03-.105.178-.19.178s-.175-.149-.19-.179l.061-.601c.01-.119-.078-.127-.1-.02l-.12.583-.009.007c-.012.004-.026.005-.042.007-.06.005-.18-.005-.232-.025.075-.301.249-.955.298-1.168.007-.031-.012-.088-.076-.09-.006 0-.019.001-.034.008-.075.028-.29.109-.358.135l.045-.479c.01-.119-.085-.128-.105-.021-.097.424-.15.998-.455 1.185.023-.202.223-1.706.252-1.907.008-.048.009-.083.062-.101.038-.013.072.003.107.038.002.001.504.46.504.46.02.025.052.037.083.027.029-.01.052-.034.056-.065l.07-.571c.002-.021-.004-.044-.021-.059-.014-.017-.034-.027-.056-.027 0 0-.041 0-.079 0l.021-.177c.056-.027.21-.097.281-.108.001 0 .006-.002.006-.002.003-.001.029-.002.029-.002.044 0 .084.014.114.036.031.024.049.058.052.101l.088.81c.005.031.028.055.057.065s.063-.002.083-.027c0 0 .502-.459.504-.46.035-.035.068-.051.106-.038.054.018.055.053.063.101.028.2.227 1.704.252 1.906-.306-.187-.36-.761-.454-1.185-.02-.108-.116-.099-.106.02l.046.479c-.068-.025-.283-.106-.358-.134-.016-.007-.03-.008-.036-.008-.063.002-.083.059-.076.09.049.213.224.867.298 1.168"/><path d="m7.844 9.436c-.054.021-.173.03-.232.025-.017-.002-.03-.003-.042-.007l-.008-.006-.12-.583c-.022-.107-.11-.1-.101.02l.062.601c-.017.03-.105.178-.19.178s-.174-.149-.19-.179l.061-.601c.01-.119-.078-.127-.1-.02l-.12.583-.009.007c-.012.004-.025.005-.043.007-.059.005-.179-.004-.232-.025.076-.301.25-.955.299-1.168.007-.031-.012-.088-.076-.09-.006 0-.019.001-.035.008-.075.028-.291.109-.358.135l.045-.479c.01-.119-.085-.128-.105-.021-.096.424-.148.998-.454 1.185.023-.202.224-1.706.252-1.907.008-.048.009-.083.062-.101.038-.013.072.003.107.038.002.001.504.46.504.46.02.025.053.037.083.027.028-.01.052-.034.056-.065l.07-.571c.002-.021-.004-.044-.021-.059-.013-.017-.035-.027-.055-.027 0 0-.04 0-.079 0l.021-.177c.056-.027.209-.097.281-.108.001 0 .005-.002.005-.002.003-.001.03-.002.03-.002.044 0 .084.014.114.036.031.024.049.058.052.101l.088.81c.004.031.027.055.055.065.03.01.063-.002.084-.027 0 0 .502-.459.504-.46.034-.035.068-.051.106-.038.053.018.054.053.063.101.027.2.227 1.704.252 1.906-.307-.187-.36-.761-.453-1.185-.022-.108-.117-.099-.107.02l.045.479c-.067-.025-.282-.106-.357-.134-.017-.007-.03-.008-.035-.008-.065.002-.083.059-.077.09.049.213.223.867.298 1.168"/><path d="m15.917 5.075c-.053.02-.173.028-.232.023-.017-.001-.03-.003-.042-.007l-.009-.007-.12-.582c-.021-.107-.109-.099-.1.021l.061.6c-.016.031-.104.177-.189.177s-.174-.146-.19-.178l.062-.6c.01-.119-.078-.128-.101-.021l-.119.582-.009.007c-.012.004-.025.006-.042.007-.06.005-.18-.004-.232-.023.074-.301.249-.956.298-1.168.007-.032-.012-.088-.076-.09-.006 0-.019.001-.035.007-.075.028-.29.109-.357.135l.045-.479c.01-.119-.085-.129-.105-.021-.095.424-.147.998-.454 1.186.024-.201.225-1.705.252-1.906.008-.048.01-.083.063-.102.038-.013.072.003.106.037.002.002.504.461.504.461.021.025.053.036.083.027.029-.009.053-.035.057-.066l.069-.569c.003-.022-.004-.044-.02-.06s-.038-.026-.058-.026c0 0-.04 0-.079 0l.021-.178c.057-.026.21-.097.282-.108.001 0 .005-.001.005-.001.003-.001.03-.002.03-.002.044 0 .084.012.114.035.03.024.049.058.053.101l.087.809c.004.031.026.058.055.066.031.009.063-.002.083-.027 0 0 .502-.459.504-.461.035-.034.069-.05.107-.037.054.019.054.054.062.102.028.201.229 1.705.252 1.906-.306-.188-.358-.762-.452-1.186-.021-.107-.116-.098-.106.021l.045.479c-.067-.025-.283-.106-.358-.135-.016-.006-.028-.007-.034-.007-.064.002-.083.058-.076.09.046.212.22.867.295 1.168"/><path d="m19.62 5.075c-.054.02-.174.028-.234.023-.016-.001-.03-.003-.042-.007l-.008-.007-.12-.582c-.021-.107-.11-.099-.1.021l.061.6c-.016.031-.105.177-.19.177s-.175-.146-.19-.178l.062-.6c.01-.119-.078-.128-.101-.021l-.12.582-.009.007c-.011.004-.025.006-.041.007-.06.005-.179-.004-.232-.023.074-.301.248-.956.298-1.168.007-.032-.013-.088-.076-.09-.006 0-.02.001-.035.007-.075.028-.29.109-.358.135l.045-.479c.012-.119-.085-.129-.105-.021-.094.424-.147.998-.453 1.186.024-.201.224-1.705.252-1.906.008-.048.009-.083.063-.102.037-.013.071.003.106.037.002.002.504.461.504.461.021.025.054.036.083.027s.053-.035.057-.066l.069-.569c.002-.022-.004-.044-.02-.06-.017-.016-.037-.026-.059-.026 0 0-.04 0-.078 0l.021-.178c.056-.026.21-.097.282-.108.001 0 .005-.001.005-.001.003-.001.03-.002.03-.002.044 0 .084.012.113.035.031.024.05.058.053.101l.088.809c.004.031.025.058.055.066.031.009.063-.002.083-.027 0 0 .502-.459.504-.461.035-.034.069-.05.107-.037.054.019.054.054.062.102.028.201.229 1.705.252 1.906-.306-.188-.358-.762-.453-1.186-.021-.107-.115-.098-.105.021l.045.479c-.068-.025-.283-.106-.358-.135-.016-.006-.028-.007-.035-.007-.063.002-.082.058-.075.09.047.212.22.867.297 1.168"/><path d="m15.917 9.436c-.053.021-.173.03-.232.025-.017-.002-.03-.004-.042-.008l-.009-.006-.12-.583c-.021-.107-.109-.1-.1.02l.061.601c-.016.03-.104.178-.189.178s-.174-.147-.19-.178l.062-.601c.01-.119-.078-.127-.101-.02l-.119.583-.009.006c-.012.004-.025.006-.042.008-.06.005-.18-.005-.232-.025.074-.301.249-.955.298-1.168.007-.031-.012-.088-.076-.09-.006 0-.019.001-.035.008-.075.028-.29.109-.357.135l.045-.479c.01-.119-.085-.128-.105-.021-.095.424-.147.998-.454 1.186.024-.202.225-1.706.252-1.907.008-.048.01-.083.063-.101.038-.013.072.003.106.038.002.001.504.46.504.46.021.025.053.037.083.027.029-.01.053-.034.057-.065l.069-.571c.003-.021-.004-.044-.02-.059-.014-.018-.035-.027-.056-.027 0 0-.04 0-.079 0l.021-.177c.057-.027.21-.097.282-.108.001 0 .005-.002.005-.002.003-.001.03-.002.03-.002.044 0 .084.014.114.036.03.024.049.058.053.101l.087.81c.004.031.026.056.055.065.031.01.063-.002.083-.027 0 0 .502-.459.504-.46.035-.035.069-.051.107-.038.054.018.054.053.062.101.028.201.229 1.705.252 1.907-.306-.188-.358-.762-.452-1.186-.021-.107-.116-.099-.106.021l.045.479c-.067-.025-.283-.106-.358-.135-.016-.007-.028-.008-.034-.008-.064.002-.083.059-.076.09.044.212.218.866.293 1.167"/><path d="m19.62 9.436c-.054.021-.174.03-.234.025-.016-.002-.03-.004-.042-.008l-.008-.006-.12-.583c-.021-.107-.11-.1-.1.02l.061.601c-.016.03-.104.178-.189.178s-.175-.147-.19-.178l.062-.601c.01-.119-.078-.127-.101-.02l-.12.583-.009.006c-.011.004-.025.006-.041.008-.06.005-.179-.005-.232-.025.074-.301.248-.955.298-1.168.007-.031-.013-.088-.076-.09-.006 0-.02.001-.035.008-.075.028-.29.109-.358.135l.045-.479c.012-.119-.085-.128-.105-.021-.094.424-.147.998-.453 1.186.024-.202.224-1.706.252-1.907.008-.048.009-.083.063-.101.037-.013.071.003.106.038.002.001.504.46.504.46.021.025.054.037.083.027s.053-.034.057-.065l.069-.571c.002-.021-.004-.044-.02-.059-.015-.018-.035-.027-.057-.027 0 0-.04 0-.078 0l.021-.177c.056-.027.21-.097.282-.108.001 0 .005-.002.005-.002.003-.001.03-.002.03-.002.044 0 .084.014.113.036.031.024.05.058.053.101l.088.81c.004.031.025.056.055.065.031.01.063-.002.083-.027 0 0 .502-.459.504-.46.035-.035.069-.051.107-.038.054.018.054.053.062.101.025.199.225 1.703.248 1.905-.306-.188-.358-.762-.453-1.186-.021-.107-.115-.099-.105.021l.045.479c-.068-.025-.283-.106-.358-.135-.016-.007-.028-.008-.035-.008-.063.002-.082.059-.075.09.048.214.221.868.298 1.169"/><path d="m4.143 18.324c-.054.019-.173.028-.232.023-.017-.001-.03-.004-.042-.008l-.008-.006-.12-.582c-.022-.107-.11-.099-.101.019l.062.601c-.017.031-.105.178-.19.178s-.174-.146-.189-.178l.061-.601c.01-.117-.078-.126-.1-.019l-.12.582-.009.006c-.012.004-.025.007-.042.008-.06.005-.18-.005-.232-.023.075-.301.249-.957.298-1.168.007-.033-.012-.088-.076-.091-.006 0-.019.002-.034.008-.075.027-.29.109-.358.134l.045-.479c.01-.117-.085-.127-.105-.02-.098.422-.151.997-.456 1.185.023-.202.224-1.706.252-1.907.008-.047.009-.082.062-.101.038-.013.072.002.107.037.002.001.504.461.504.461.02.024.052.036.083.027.029-.009.052-.035.056-.066l.07-.569c.002-.022-.004-.044-.021-.061-.014-.017-.034-.027-.056-.027 0 0-.041 0-.079 0l.021-.176c.056-.027.21-.098.281-.108.001 0 .006-.001.006-.001.003-.002.029-.003.029-.003.044 0 .084.013.114.035.031.025.049.058.052.102l.088.809c.004.031.026.058.056.066s.063-.003.083-.027c0 0 .502-.46.504-.461.035-.035.068-.05.106-.037.054.019.055.054.063.101.028.201.228 1.705.252 1.907-.306-.188-.359-.763-.453-1.186-.021-.107-.116-.098-.106.02l.046.479c-.068-.024-.283-.106-.358-.134-.016-.006-.029-.008-.035-.008-.063.003-.083.058-.076.091.048.211.223.867.297 1.168"/><path d="m7.844 18.324c-.054.019-.173.028-.232.023-.017-.001-.03-.004-.042-.008l-.008-.006-.12-.582c-.022-.107-.11-.099-.101.019l.062.601c-.017.031-.105.178-.19.178s-.174-.146-.189-.178l.061-.601c.01-.117-.078-.126-.1-.019l-.12.582-.009.006c-.012.004-.025.007-.043.008-.059.005-.179-.005-.232-.023.076-.301.25-.957.299-1.168.007-.033-.012-.088-.076-.091-.006 0-.019.002-.035.008-.074.027-.29.109-.357.134l.045-.479c.01-.117-.085-.127-.105-.02-.095.423-.147.997-.453 1.186.023-.202.224-1.706.252-1.907.008-.047.009-.082.062-.101.038-.013.072.002.107.037.002.001.504.461.504.461.02.024.053.036.083.027.028-.009.052-.035.056-.066l.07-.569c.002-.022-.004-.044-.021-.061-.014-.017-.035-.027-.056-.027 0 0-.04 0-.079 0l.021-.176c.056-.027.209-.098.281-.108.001 0 .005-.001.005-.001.003-.002.03-.003.03-.003.044 0 .084.013.114.035.031.025.049.058.052.102l.088.809c.004.031.026.058.055.066.03.009.063-.003.084-.027 0 0 .502-.46.504-.461.034-.035.068-.05.106-.037.053.019.054.054.063.101.027.201.228 1.705.252 1.907-.307-.188-.359-.763-.453-1.186-.024-.109-.119-.099-.109.018l.045.479c-.067-.024-.282-.106-.357-.134-.017-.006-.029-.008-.035-.008-.064.003-.083.058-.076.091.048.212.222.868.297 1.169"/><path d="m4.143 22.685c-.054.021-.173.029-.232.024-.017-.001-.03-.004-.042-.008l-.008-.006-.12-.582c-.022-.107-.11-.1-.101.019l.062.601c-.017.03-.105.179-.19.179s-.174-.148-.189-.179l.061-.601c.01-.118-.078-.126-.1-.019l-.12.582-.009.006c-.012.004-.025.007-.042.008-.06.005-.18-.004-.232-.024.075-.301.249-.957.298-1.168.007-.032-.012-.088-.076-.091-.006 0-.019.002-.034.008-.075.028-.29.11-.358.135l.045-.479c.01-.119-.085-.128-.105-.021-.095.423-.147.998-.453 1.186.023-.203.224-1.706.252-1.907.008-.048.009-.083.062-.101.038-.013.072.002.107.037.002.001.504.461.504.461.02.023.052.036.083.027.029-.01.052-.035.056-.066l.07-.57c.002-.021-.004-.044-.021-.059-.014-.018-.034-.028-.056-.028 0 0-.041 0-.079 0l.021-.176c.056-.028.21-.097.281-.109.001 0 .006-.001.006-.001.003-.001.029-.003.029-.003.044 0 .084.014.114.036.031.025.049.057.052.102l.088.809c.004.031.026.057.056.066.029.009.063-.004.083-.027 0 0 .502-.46.504-.461.035-.035.068-.05.106-.037.054.018.055.053.063.101.028.201.228 1.704.252 1.907-.306-.188-.359-.763-.453-1.186-.021-.107-.116-.099-.106.021l.046.479c-.068-.024-.283-.106-.358-.135-.016-.006-.029-.008-.035-.008-.063.003-.083.059-.076.091.045.21.22.866.294 1.167"/><path d="m7.844 22.685c-.054.021-.173.029-.232.024-.017-.001-.03-.004-.042-.008l-.008-.006-.12-.582c-.022-.107-.11-.1-.101.019l.062.601c-.017.03-.105.179-.19.179s-.174-.148-.189-.179l.061-.601c.01-.118-.078-.126-.1-.019l-.12.582-.009.006c-.012.004-.025.007-.043.008-.059.005-.179-.004-.232-.024.076-.301.25-.957.299-1.168.007-.032-.012-.088-.076-.091-.006 0-.019.002-.035.008-.074.028-.29.11-.357.135l.045-.479c.01-.119-.085-.128-.105-.021-.095.423-.147.998-.453 1.186.023-.203.224-1.706.252-1.907.008-.048.009-.083.062-.101.038-.013.072.002.107.037.002.001.504.461.504.461.02.023.053.036.083.027.028-.01.052-.035.056-.066l.07-.57c.002-.021-.004-.044-.021-.059-.014-.018-.035-.028-.056-.028 0 0-.04 0-.079 0l.021-.176c.056-.028.209-.097.281-.109.001 0 .005-.001.005-.001.003-.001.03-.003.03-.003.044 0 .084.014.114.036.031.025.049.057.052.102l.088.809c.004.031.026.057.055.066.03.009.063-.004.084-.027 0 0 .502-.46.504-.461.034-.035.068-.05.106-.037.053.018.054.053.063.101.027.201.228 1.704.252 1.907-.307-.188-.359-.763-.453-1.186-.024-.108-.119-.099-.109.02l.045.479c-.067-.024-.282-.106-.357-.135-.017-.006-.029-.008-.035-.008-.064.003-.083.059-.076.091.048.211.222.867.297 1.168"/><path d="m15.917 18.324c-.053.019-.173.028-.232.023-.017-.001-.03-.004-.042-.008l-.009-.006-.12-.582c-.021-.107-.109-.099-.1.019l.061.601c-.016.031-.104.178-.189.178s-.174-.146-.19-.178l.062-.601c.01-.117-.078-.126-.101-.019l-.119.582-.009.006c-.012.004-.025.007-.042.008-.06.005-.18-.005-.232-.023.074-.301.249-.957.298-1.168.007-.033-.012-.088-.076-.091-.006 0-.019.002-.035.008-.075.027-.29.109-.357.134l.045-.479c.01-.117-.085-.127-.105-.02-.095.423-.147.997-.454 1.186.024-.202.225-1.706.252-1.907.008-.047.01-.082.063-.101.038-.013.072.002.106.037.002.001.504.461.504.461.021.024.053.036.083.027.029-.009.053-.035.057-.066l.069-.569c.003-.022-.004-.044-.02-.061-.014-.017-.035-.027-.056-.027 0 0-.04 0-.079 0l.021-.176c.057-.027.21-.098.282-.108.001 0 .005-.001.005-.001.003-.002.03-.003.03-.003.044 0 .084.013.114.035.03.025.049.058.053.102l.087.809c.004.031.026.058.055.066.031.009.063-.003.083-.027 0 0 .502-.46.504-.461.035-.035.069-.05.107-.037.054.019.054.054.062.101.028.201.229 1.705.252 1.907-.306-.188-.358-.763-.452-1.186-.021-.107-.116-.098-.106.02l.045.479c-.067-.024-.283-.106-.358-.134-.016-.006-.028-.008-.034-.008-.064.003-.083.058-.076.091.044.21.218.866.293 1.167"/><path d="m19.62 18.324c-.054.019-.174.028-.234.023-.016-.001-.03-.004-.042-.008l-.008-.006-.12-.582c-.021-.107-.11-.099-.1.019l.061.601c-.016.031-.104.178-.189.178s-.175-.146-.19-.178l.062-.601c.01-.117-.078-.126-.101-.019l-.12.582-.009.006c-.011.004-.025.007-.041.008-.06.005-.179-.005-.232-.023.074-.301.248-.957.298-1.168.007-.033-.013-.088-.076-.091-.006 0-.02.002-.035.008-.075.027-.29.109-.358.134l.045-.479c.012-.117-.085-.127-.105-.02-.094.423-.147.997-.453 1.186.024-.202.224-1.706.252-1.907.008-.047.009-.082.063-.101.037-.013.071.002.106.037.002.001.504.461.504.461.021.024.054.036.083.027s.053-.035.057-.066l.069-.569c.002-.022-.004-.044-.02-.061-.015-.017-.035-.027-.057-.027 0 0-.04 0-.078 0l.021-.176c.056-.027.21-.098.282-.108.001 0 .005-.001.005-.001.003-.002.03-.003.03-.003.044 0 .084.013.113.035.031.025.05.058.053.102l.088.809c.004.031.025.058.055.066.031.009.063-.003.083-.027 0 0 .502-.46.504-.461.035-.035.069-.05.107-.037.054.019.054.054.062.101.028.201.229 1.705.252 1.907-.306-.188-.358-.763-.453-1.186-.021-.107-.115-.098-.105.02l.045.479c-.068-.024-.283-.106-.358-.134-.016-.006-.028-.008-.035-.008-.063.003-.082.058-.075.091.044.21.217.866.294 1.167"/><path d="m15.917 22.685c-.053.021-.173.029-.232.024-.017-.001-.03-.004-.042-.008l-.009-.006-.12-.582c-.021-.107-.109-.1-.1.019l.061.601c-.016.03-.104.179-.189.179s-.174-.148-.19-.179l.062-.601c.01-.118-.078-.126-.101-.019l-.119.582-.009.006c-.012.004-.025.007-.042.008-.06.005-.18-.004-.232-.024.074-.301.249-.957.298-1.168.007-.032-.012-.088-.076-.091-.006 0-.019.002-.035.008-.075.028-.29.11-.357.135l.045-.479c.01-.119-.085-.128-.105-.021-.095.423-.147.998-.454 1.186.024-.203.225-1.706.252-1.907.008-.048.01-.083.063-.101.038-.013.072.002.106.037.002.001.504.461.504.461.021.023.053.036.083.027.029-.01.053-.035.057-.066l.069-.57c.003-.021-.004-.044-.02-.059-.014-.018-.035-.028-.056-.028 0 0-.04 0-.079 0l.021-.176c.057-.028.21-.097.282-.109.001 0 .005-.001.005-.001.003-.001.03-.003.03-.003.044 0 .084.014.114.036.03.025.049.057.053.102l.087.809c.004.031.026.057.055.066.031.009.063-.004.083-.027 0 0 .502-.46.504-.461.035-.035.069-.05.107-.037.054.018.054.053.062.101.028.201.229 1.704.252 1.907-.306-.188-.358-.763-.452-1.186-.021-.107-.116-.099-.106.021l.045.479c-.067-.024-.283-.106-.358-.135-.016-.006-.028-.008-.034-.008-.064.003-.083.059-.076.091.044.21.218.866.293 1.167"/><path d="m19.62 22.685c-.054.021-.174.029-.234.024-.016-.001-.03-.004-.042-.008l-.008-.006-.12-.582c-.021-.107-.11-.1-.1.019l.061.601c-.016.03-.104.179-.189.179s-.175-.148-.19-.179l.062-.601c.01-.118-.078-.126-.101-.019l-.12.582-.009.006c-.011.004-.025.007-.041.008-.06.005-.179-.004-.232-.024.074-.301.248-.957.298-1.168.007-.032-.013-.088-.076-.091-.006 0-.02.002-.035.008-.075.028-.29.11-.358.135l.045-.479c.012-.119-.085-.128-.105-.021-.094.423-.147.998-.453 1.186.024-.203.224-1.706.252-1.907.008-.048.009-.083.063-.101.037-.013.071.002.106.037.002.001.504.461.504.461.021.023.054.036.083.027.029-.01.053-.035.057-.066l.069-.57c.002-.021-.004-.044-.02-.059-.015-.018-.035-.028-.057-.028 0 0-.04 0-.078 0l.021-.176c.056-.028.21-.097.282-.109.001 0 .005-.001.005-.001.003-.001.03-.003.03-.003.044 0 .084.014.113.036.031.025.05.057.053.102l.088.809c.004.031.025.057.055.066.031.009.063-.004.083-.027 0 0 .502-.46.504-.461.035-.035.069-.05.107-.037.054.018.054.053.062.101.028.201.229 1.704.252 1.907-.306-.188-.358-.763-.453-1.186-.021-.107-.115-.099-.105.021l.045.479c-.068-.024-.283-.106-.358-.135-.016-.006-.028-.008-.035-.008-.063.003-.082.059-.075.091.044.21.217.866.294 1.167"/></g></svg>